<?xml version="1.0" encoding="utf-8"?>
<!-- Generator: Adobe Illustrator 16.0.0, SVG Export Plug-In . SVG Version: 6.00 Build 0)  -->
<!DOCTYPE svg PUBLIC "-//W3C//DTD SVG 1.1//EN" "http://www.w3.org/Graphics/SVG/1.1/DTD/svg11.dtd">
<svg version="1.1" id="Camada_1" xmlns="http://www.w3.org/2000/svg" xmlns:xlink="http://www.w3.org/1999/xlink" x="0px" y="0px"
	 width="270px" height="115px" viewBox="0 -134.833 270 115" enable-background="new 0 -134.833 270 115" xml:space="preserve">
<g>
	<path fill="#F4703B" d="M248.243-121.757c-2.683,1.207-3.94,4.097-2.87,6.479l9.712,21.579c1.069,2.384,4.067,3.361,6.751,2.155
		c2.683-1.209,3.938-4.099,2.863-6.481l-9.705-21.581C253.922-121.988,250.925-122.964,248.243-121.757z"/>
	<path fill="#F4703B" d="M222.977-76.519l10.471-4.71l18.274,47.752l0.032-0.015c0.427,0.951,4.466,2.215,8.023,0.617
		c3.558-1.602,5.285-5.461,4.859-6.412l0.034-0.015L240.632-84.46L251.83-89.5l-11.536-25.651l-28.85,12.981L222.977-76.519z"/>
	<path fill="#F4703B" d="M201.226-100.605c-2.685,1.208-3.942,4.095-2.87,6.479l9.707,21.581c1.072,2.383,4.069,3.36,6.752,2.152
		c2.68-1.206,3.939-4.096,2.867-6.48l-9.707-21.576C206.899-100.836,203.905-101.811,201.226-100.605z"/>
</g>
<g>
	<path fill="#4088F6" d="M111.535-64.229c0,2.587-0.34,4.915-1.019,6.984c-0.678,2.07-1.665,3.833-2.958,5.287
		c-1.295,1.456-2.879,2.579-4.754,3.371c-1.875,0.793-3.994,1.188-6.354,1.188c-2.394,0-4.528-0.395-6.403-1.188
		c-1.876-0.792-3.461-1.915-4.754-3.371c-1.292-1.454-2.28-3.217-2.959-5.287c-0.678-2.069-1.018-4.397-1.018-6.984v-41.908H66.765
		v41.908c0,4.267,0.687,8.188,2.063,11.761c1.374,3.573,3.337,6.653,5.893,9.24c2.554,2.587,5.667,4.608,9.338,6.063
		c3.669,1.455,7.8,2.182,12.393,2.182c4.591,0,8.713-0.728,12.368-2.182c3.653-1.456,6.759-3.477,9.313-6.063
		c2.553-2.587,4.52-5.667,5.893-9.24c1.374-3.573,2.063-7.494,2.063-11.761v-41.908h-14.552V-64.229z"/>
	<path fill="#4088F6" d="M183.877-65.516c-0.922-2.052-2.133-3.791-3.639-5.214c-1.503-1.422-3.207-2.602-5.116-3.542
		c-1.908-0.937-3.865-1.753-5.869-2.449c-2.003-0.695-3.963-1.334-5.869-1.916c-1.908-0.583-3.613-1.244-5.116-1.989
		c-1.505-0.743-2.717-1.624-3.639-2.643c-0.922-1.019-1.38-2.303-1.38-3.856c0-2.425,0.838-4.389,2.521-5.893
		c1.68-1.503,4.202-2.256,7.565-2.256c1.908,0,3.573,0.252,4.998,0.752c1.42,0.503,2.682,1.042,3.782,1.625
		c1.098,0.583,2.062,1.125,2.886,1.626s1.594,0.75,2.302,0.75c0.746,0,1.351-0.169,1.821-0.509c0.468-0.34,0.929-0.881,1.38-1.625
		l3.59-6.84c-2.489-2.328-5.538-4.147-9.142-5.457c-3.606-1.309-7.527-1.964-11.762-1.964c-3.784,0-7.138,0.583-10.065,1.746
		c-2.926,1.165-5.392,2.702-7.397,4.609c-2.004,1.909-3.523,4.091-4.559,6.548c-1.034,2.458-1.552,4.996-1.552,7.614
		c0,3.267,0.46,5.999,1.383,8.198c0.922,2.199,2.124,4.043,3.613,5.529c1.487,1.488,3.185,2.686,5.093,3.59
		c1.906,0.906,3.863,1.682,5.867,2.328c2.006,0.648,3.963,1.237,5.871,1.771c1.906,0.534,3.604,1.173,5.091,1.916
		c1.489,0.746,2.691,1.667,3.613,2.765c0.922,1.099,1.385,2.539,1.385,4.317c0,3.072-0.931,5.383-2.788,6.936
		c-1.862,1.552-4.489,2.329-7.884,2.329c-2.328,0-4.325-0.324-5.99-0.97c-1.665-0.646-3.129-1.359-4.389-2.135
		c-1.26-0.777-2.377-1.487-3.347-2.134c-0.971-0.647-1.893-0.97-2.766-0.97c-0.646,0-1.263,0.17-1.844,0.509
		c-0.581,0.339-1.049,0.768-1.406,1.286l-4.269,6.887c1.358,1.392,2.944,2.652,4.753,3.783c1.813,1.133,3.745,2.103,5.797,2.91
		c2.053,0.81,4.188,1.439,6.402,1.891c2.214,0.454,4.438,0.68,6.668,0.68c3.914,0,7.414-0.599,10.504-1.794
		c3.087-1.196,5.682-2.838,7.784-4.924c2.101-2.085,3.711-4.526,4.827-7.324c1.114-2.796,1.672-5.796,1.672-8.998
		C185.26-60.963,184.799-63.461,183.877-65.516z"/>
	<path fill="#4088F6" d="M36.596-106.137H17.064v12.976h19.532v32.521c0,2.522-0.219,4.665-0.654,6.427
		c-0.437,1.761-1.092,3.192-1.964,4.292c-0.875,1.1-1.958,1.893-3.251,2.376c-1.292,0.485-2.813,0.727-4.559,0.727
		c-1.261,0-2.321-0.096-3.178-0.291c-0.856-0.193-1.559-0.291-2.11-0.291c-0.968,0-1.713,0.235-2.229,0.703
		c-0.52,0.47-0.826,1.092-0.922,1.868c-0.131,1.423-0.261,2.845-0.389,4.269c-0.128,1.422-0.258,2.846-0.387,4.268
		c1.906,0.454,3.727,0.784,5.456,0.995c1.73,0.21,3.485,0.315,5.264,0.315c3.912,0,7.34-0.614,10.282-1.843
		c2.943-1.229,5.392-2.983,7.348-5.263c1.956-2.279,3.42-5.012,4.389-8.197c0.97-3.185,1.457-6.75,1.457-10.695v-45.158H38.41
		H36.596z"/>
</g>
</svg>
